<?xml version="1.0" encoding="UTF-8"?>
<!DOCTYPE svg PUBLIC "-//W3C//DTD SVG 1.1//EN" "http://www.w3.org/Graphics/SVG/1.1/DTD/svg11.dtd">
<svg xmlns="http://www.w3.org/2000/svg" version="1.1" width="860px" height="650px" style="shape-rendering:geometricPrecision; text-rendering:geometricPrecision; image-rendering:optimizeQuality; fill-rule:evenodd; clip-rule:evenodd" xmlns:xlink="http://www.w3.org/1999/xlink">
<g><path style="opacity:0.501" fill="#cfa97a" d="M 133.5,-0.5 C 144.833,-0.5 156.167,-0.5 167.5,-0.5C 199.242,3.58206 227.242,16.0821 251.5,37C 454.034,241.034 656.701,444.868 859.5,648.5C 859.5,648.833 859.5,649.167 859.5,649.5C 717.833,649.5 576.167,649.5 434.5,649.5C 301.868,515.701 169.035,382.035 36,248.5C 15.915,224.666 3.74836,197.332 -0.5,166.5C -0.5,154.833 -0.5,143.167 -0.5,131.5C 10.0363,67.7834 46.0363,25.6167 107.5,5C 116.237,2.82092 124.903,0.98759 133.5,-0.5 Z"/></g>
<g><path style="opacity:0.915" fill="#fcfaf8" d="M 764.5,337.5 C 773.705,337.206 777.205,341.54 775,350.5C 770,355.833 765,355.833 760,350.5C 758.243,344.825 759.743,340.492 764.5,337.5 Z"/></g>
<g><path style="opacity:0.915" fill="#fcfaf8" d="M 38.5,395.5 C 47.7051,395.206 51.2051,399.54 49,408.5C 44,413.833 39,413.833 34,408.5C 32.243,402.825 33.743,398.492 38.5,395.5 Z"/></g>
<g><path style="opacity:0.939" fill="#fcfaf8" d="M 711.5,405.5 C 722.815,405.655 727.315,411.322 725,422.5C 719.723,429.18 713.556,430.18 706.5,425.5C 701.252,416.918 702.919,410.252 711.5,405.5 Z"/></g>
<g><path style="opacity:0.939" fill="#fcfaf8" d="M 91.5,463.5 C 102.815,463.655 107.315,469.322 105,480.5C 99.7229,487.18 93.5563,488.18 86.5,483.5C 81.252,474.918 82.9187,468.252 91.5,463.5 Z"/></g>
<g><path style="opacity:0.501" fill="#cfa97a" d="M 380.5,649.5 C 269.167,649.5 157.833,649.5 46.5,649.5C 37.4565,585.757 60.7899,538.257 116.5,507C 169.241,484.725 217.575,491.725 261.5,528C 301.369,568.368 341.036,608.868 380.5,649.5 Z"/></g>
</svg>
